<?xml version="1.0" encoding="utf-8"?>
<!-- Generator: Adobe Illustrator 18.0.0, SVG Export Plug-In . SVG Version: 6.00 Build 0)  -->
<!DOCTYPE svg PUBLIC "-//W3C//DTD SVG 1.1//EN" "http://www.w3.org/Graphics/SVG/1.1/DTD/svg11.dtd">
<svg version="1.1" id="Capa_1" xmlns="http://www.w3.org/2000/svg" xmlns:xlink="http://www.w3.org/1999/xlink" x="0px" y="0px"
	 viewBox="0 0 409.8 409.8" enable-background="new 0 0 409.8 409.8" xml:space="preserve">
<g>
	<g>
		<path fill="#E97F02" d="M280.9,162.8c8.4,26.5,5.6,57-10.2,83.4c-15.3,25.6-39.7,42.1-66,47.8c40.5,15.1,83.7,4.9,102.6-26.7
			C326.7,235.1,314.6,191.4,280.9,162.8z"/>
		<path fill="#E97F02" d="M137.9,243.3c-14.5-26-16.7-55.4-8.4-81.1c-33.4,27.5-46.1,70-28.2,102.3c18.2,32.8,62.1,44.2,103.7,29.4
			C177.9,287.9,152.9,270.2,137.9,243.3z"/>
		<path fill="#E97F02" d="M206.9,129.7c29.8,0.5,56.3,13.3,74.4,33.2c-7.2-42.7-37.5-74.9-74.5-75.5c-37.5-0.6-69.4,31.7-77.3,75.2
			C148.3,142.1,176.1,129.2,206.9,129.7z"/>
		<path fill="#F8CA00" d="M391.9,123.9C380.2,82.5,337.3,56.7,288,57.2C276.6,30,255.6,9.4,228.3,2.5
			c-41.7-10.6-85.5,13.7-109.8,56.6C89.2,55.4,61,63.3,41.3,83.4c-30,30.8-30.9,80.9-5.9,123.4c-17.8,23.5-25.1,51.9-17.5,79.1
			c11.7,41.4,54.6,67.2,103.9,66.8c11.4,27.2,32.4,47.7,59.7,54.7c41.7,10.6,85.5-13.7,109.8-56.6c29.3,3.7,57.6-4.2,77.2-24.4
			c30-30.8,30.9-80.9,5.9-123.4C392.2,179.5,399.5,151.1,391.9,123.9z M329.8,290c-26.1,26.8-60.7,40-94.5,39.3
			c13.8,9.3,28.6,15.7,43.5,19.2c-25.5,11.5-55.4,14.7-85.2,7.2c-36.3-9.2-65-32.6-81.3-62.2c-1.1,16.6,0.7,32.6,5.1,47.2
			c-22.7-16.3-40.5-40.6-48.8-70.2c-10.1-36-4.3-72.6,13.2-101.5c-14.9,7.3-27.9,17-38.3,28c2.8-27.8,14.9-55.3,36.4-77.3
			c26.1-26.8,60.7-40,94.5-39.3c-13.8-9.3-28.6-15.7-43.4-19.2c25.5-11.5,55.4-14.7,85.2-7.2c36.3,9.2,65,32.6,81.3,62.2
			c1.1-16.6-0.7-32.6-5.1-47.2c22.7,16.3,40.5,40.6,48.8,70.2c10.1,36,4.3,72.6-13.2,101.5c14.9-7.3,27.9-17,38.3-28
			C363.4,240.5,351.3,268,329.8,290z"/>
		<path fill="#F8CA00" d="M204.1,163.4c-27.5,4.6-48.3,24.3-48.3,48c0,23.3,20.1,42.9,46.9,47.8c-12.4-11.6-20.2-28.5-20.2-47.3
			C182.6,192.4,191,175,204.1,163.4z"/>
		<path fill="#F8CA00" d="M208.6,246.9c27.5-4.6,48.3-24.3,48.3-48c0-23.3-20.1-42.9-46.9-47.8c12.4,11.6,20.2,28.5,20.2,47.3
			C230.2,217.8,221.8,235.2,208.6,246.9z"/>
	</g>
</g>
</svg>
